<svg fill="none" height="36" viewBox="0 0 144 36" width="144" xmlns="http://www.w3.org/2000/svg" xmlns:xlink="http://www.w3.org/1999/xlink"><clipPath id="a"><path d="m0 0h144v36h-144z"/></clipPath><g clip-path="url(#a)"><g fill="#24272a"><path d="m49.4216 8.79993c4.6662 0 7.1749 3.14997 7.1749 9.29997s-2.5087 9.3-7.1749 9.3c-4.616 0-7.1248-3.15-7.1248-9.3s2.5088-9.29997 7.1248-9.29997zm0 16.14997c2.7094 0 3.9136-2.1 3.9136-6.9s-1.154-6.9-3.9136-6.9c-2.7094 0-3.8634 2.05-3.8634 6.9 0 4.8 1.154 6.9 3.8634 6.9z"/><path d="m59.1554 14.1499h2.8599v.3c0 .8-.1505 1.75-.4515 3.1h.2007c.602-2.35 1.7059-3.75 4.0139-3.75 2.9101 0 4.616 2.45 4.616 6.8 0 4.3-1.7059 6.8-4.616 6.8-2.4084 0-3.3115-1.3-3.9638-3.6h-.2007c.3011 1.35.5018 2.4.5018 3.7v4.65h-2.9603zm8.1784 6.45c0-2.95-.9533-4.6-2.7596-4.6s-2.7094 1.6-2.7094 4.55.9031 4.55 2.7094 4.55 2.7596-1.6 2.7596-4.5z"/><path d="m71.8494 20.55c0-4.25 2.007-6.8 5.6196-6.8 3.2613 0 5.1679 2.15 5.1679 5.8 0 .5-.0502.95-.1003 1.65h-7.6767v.15c0 2.2.853 3.7 2.6592 3.7 1.3547 0 2.007-.65 2.2579-2.15l2.7094.65c-.5018 2.45-2.2579 3.7-4.9673 3.7-3.7129.1-5.6697-2.4-5.6697-6.7zm7.8272-1.15c0-2.45-.7024-3.6-2.2076-3.6-1.6558 0-2.6091 1.35-2.6091 3.6z"/><path d="m84.8947 14.1499h2.86v.35c0 1.15-.1506 2.15-.4516 3.55h.2007c.5017-2.9 1.6056-4.25 4.0641-4.25 2.2578 0 3.7129 1.45 3.7129 4.35v8.85h-2.9603v-8.1c0-1.85-.6523-2.8-2.0571-2.8-1.6558 0-2.4586 1.2-2.4586 4.1v6.8h-2.9602v-12.85z"/><path d="m112.842 27-2.659-11c-.301-1.35-.653-3.2-.653-4.9h-.15c0 1.75-.351 3.6-.652 4.9l-2.66 11h-2.207l-4.0645-17.84998h2.7095l2.057 9.99998c.452 2.05.652 3.75.652 5.95h.201c0-2.05.201-3.8.702-5.95l2.459-9.99998h2.509l2.408 9.99998c.552 2.3.753 4.05.753 5.95h.2c0-2 .151-3.65.653-5.95l2.107-9.99998h1.957l-4.064 17.84998z"/><path d="m120.318 20.6c0-4.2 2.007-6.75 5.419-6.75 3.161 0 4.967 2.1 4.967 5.8 0 .45-.05.85-.101 1.5h-7.927v.2c0 2.3 1.003 4.05 3.111 4.05 1.555 0 2.308-.7 2.659-2.3l2.107.6c-.451 2.4-2.157 3.65-4.766 3.65-3.462 0-5.469-2.5-5.469-6.75zm8.028-1.1c0-2.65-.853-3.9-2.609-3.9-1.907 0-3.061 1.5-3.061 3.9z"/><path d="m135.32 23.8h-.151c.301 1.1.402 1.9.402 2.75v.45h-2.308v-18.25h2.308v5c0 1.4-.151 2.4-.502 3.85h.15c.603-2.4 1.807-3.75 4.014-3.75 2.86 0 4.667 2.55 4.667 6.7 0 4.25-1.907 6.8-4.767 6.8-2.157 0-3.211-1.3-3.813-3.55zm6.221-3.25c0-3.15-1.103-4.85-3.11-4.85-1.957 0-3.061 1.7-3.061 4.9s1.104 4.95 3.061 4.95c2.007 0 3.11-1.8 3.11-5z"/></g><path d="m36.1254 18.3c0-.2 0-.45 0-.65v.05-.05c-.1003-4.35-1.7561-8.7-4.9672-12.05 2.7094 2.8 4.2146 6.3 4.5658 9.95-.4516-1.4-1.2543-2.7-2.308-3.85-.1004-2.4-.853-4.55-2.3582-6.2 1.4551 1.6 2.2077 3.7 2.2077 6.05-1.3547-1.4-3.1108-2.6-5.168-3.5-.9031-2.05-2.1073-3.8-3.5122-5.15 2.3582.05 4.4655.75 6.0209 2.2.1004.1.1506.15.2509.25-.1003-.1-.1505-.15-.2509-.25 0 0 .0502 0 .0502.05 0 0-.0502 0-.0502-.05-3.4118-3.35-7.8271-5-12.2425-5.1 0 0 0 0-.0501 0h.0501c-.2007 0-.4515 0-.6522 0h.0501s0 0-.0501 0c-4.5157.1-8.98121 1.85-12.44324 5.25-7.07456 7.05-7.07456 18.45 0 25.45 7.07454 7.05 18.51424 7.05 25.53864 0 3.4621-3.4 5.2182-7.9 5.3185-12.4zm-.4014-2.7c.2007 1.95.0502 3.95-.4516 5.85-1.2041 2.55-3.763 4.65-7.0243 6.1.602-1.45 1.1038-3.05 1.4048-4.75 2.5087-3.6 3.8133-7.5 3.7631-10.95 1.1038 1.15 1.9066 2.4 2.308 3.75zm-7.0746 7.7c-.5519.7-1.154 1.35-1.8062 2-1.5554 1.55-3.3115 2.85-5.0174 3.9-.9032.1-1.8063.15-2.7095.15-3.8132 0-7.3254-.85-10.13514-2.2-1.45506-2.85-2.30802-6.35-2.30802-10.15 0-.9.05018-1.8.15053-2.7 1.00348-1.75 2.30801-3.45 3.91363-5.05.6522-.65 1.3045-1.25 2.0069-1.8 1.9568-.5 4.0641-.8 6.322-.8 3.2111 0 6.1714.6 8.7805 1.6 1.0034 2.55 1.6055 5.55 1.6055 8.75 0 2.2-.301 4.35-.8028 6.3zm-16.3066 8.4c-.9533-.85-1.8062-1.85-2.55886-3.05 2.50876.85 5.31846 1.35 8.27876 1.35.8028 0 1.6056-.05 2.4084-.1-2.8098 1.35-5.6196 2-8.1283 1.8zm-6.22157-16.1c-.05018.8-.10035 1.6-.10035 2.4 0 2.95.50174 5.75 1.3547 8.25-1.20418-.75-2.20766-1.6-3.06063-2.55-.20069-2.5.45157-5.3 1.80628-8.1zm1.90662 12.4c.55191 1.2 1.154 2.3 1.85644 3.25-1.20418-.4-2.30801-1.05-3.21115-1.95-.90313-.9-1.5554-2-1.95679-3.2 1.05366.7 2.10732 1.35 3.3115 1.9zm1.50522-18.5c-.90313.9-1.70592 1.8-2.40836 2.75.2007-1 .45157-1.9.75261-2.8 1.05366-.6 2.20768-1.15 3.46198-1.55-.602.5-1.2041 1.05-1.80623 1.6zm-3.06062 3.7c-1.90662 2.75-3.11081 5.65-3.56237 8.4-.60209-1.1-.90314-2.35-.90314-3.6 0-3.25 2.05714-6.15 5.36864-8.25-.40139 1.1-.70244 2.25-.90313 3.45zm11.59025 20.8c-1.2544 0-2.5087-.3-3.6126-.9 2.7596-.45 5.6697-1.65 8.4293-3.55 1.2042-.2 2.3582-.5 3.462-.9-2.1073 3.3-5.0174 5.35-8.2787 5.35zm5.77-5.1c.9533-.7 1.8565-1.5 2.7596-2.4.5519-.55 1.1038-1.15 1.6056-1.75-.4014 1.25-.9533 2.4-1.5554 3.45-.9032.25-1.8565.5-2.8098.7zm9.4328-17.2c0 3.1-1.2042 6.65-3.4119 9.9.1506-1.2.2509-2.4.2509-3.65 0-3.5-.6523-6.75-1.8564-9.55 2.0069.9 3.7128 2 5.0174 3.3zm-5.6195-3.9c-2.8098-1.15-6.0711-1.8-9.5833-1.8-1.2544 0-2.4585.1-3.6627.25 3.3115-2.25 6.8237-3.4 9.9846-3.4 1.3046 1.3 2.4084 3 3.2614 4.95zm2.9602-2.75c-1.6055-1.5-3.763-2.25-6.1714-2.3-1.154-1.1-2.4585-1.9-3.8634-2.3 3.6125.3 7.1749 1.85 10.0348 4.6zm-10.1853-4.7c1.3547.45 2.6592 1.25 3.8132 2.35-3.4118-.05-7.3254 1.25-10.938 3.75-1.7059.3-3.31146.8-4.76651 1.4 1.3547-3.3 3.51221-5.85 6.07111-7.05 1.9066-.45 3.8634-.6 5.8202-.45zm-13.69758 4.9c2.20766-2.2 4.81668-3.65 7.62648-4.4-2.6091 1.3-4.81673 3.85-6.32195 7.15-2.15749.95-4.01394 2.25-5.41882 3.75.85296-2.35 2.20767-4.6 4.11429-6.5zm24.13378 24.05c-1.9066 1.9-4.1143 3.25-6.5226 4.05 1.5052-1.35 2.7595-3.2 3.763-5.35 3.3617-1.5 5.9206-3.7 7.1749-6.25-.8027 2.75-2.2578 5.35-4.4153 7.55z" fill="#0071ce"/></g></svg>