<svg fill="none" height="33" viewBox="0 0 272 33" width="272" xmlns="http://www.w3.org/2000/svg"><path clip-rule="evenodd" d="m252.079.453878c.353-.163839.77-.107764 1.067.143713l18 15.228009c.224.19.354.4692.354.7634s-.13.5734-.354.7634l-18 15.228c-.297.2515-.714.3076-1.067.1437-.353-.1638-.579-.5178-.579-.9071v-6.614h-250.5c-.552285 0-1-.4477-1-1s.447715-1 1-1h251.5c.552 0 1 .4477 1 1v5.4581l15.452-13.0721-15.452-13.07211v5.45813c0 .55228-.448 1-1 1s-1-.44772-1-1v-7.61398c0-.389365.226-.743323.579-.907162z" fill="#ff595a" fill-rule="evenodd"/></svg>