<svg fill="none" height="48" viewBox="0 0 326 48" width="326" xmlns="http://www.w3.org/2000/svg" xmlns:xlink="http://www.w3.org/1999/xlink"><clipPath id="a"><path d="m0 0h325.8v48h-325.8z"/></clipPath><g clip-path="url(#a)"><g fill="#24272a"><path d="m65.6667 11.7333c6.2 0 9.5333 4.2 9.5333 12.4s-3.3333 12.4-9.5333 12.4c-6.1334 0-9.4667-4.2-9.4667-12.4s3.3333-12.4 9.4667-12.4zm0 21.5334c3.6 0 5.2-2.8 5.2-9.2s-1.5334-9.2-5.2-9.2c-3.6 0-5.1334 2.7333-5.1334 9.2 0 6.4 1.5334 9.2 5.1334 9.2z"/><path d="m78.6 18.8667h3.8v.4c0 1.0667-.2 2.3333-.6 4.1333h.2667c.8-3.1333 2.2667-5 5.3333-5 3.8667 0 6.1334 3.2667 6.1334 9.0667 0 5.7333-2.2667 9.0667-6.1334 9.0667-3.2 0-4.4-1.7334-5.2666-4.8h-.2667c.4 1.8.6667 3.2.6667 4.9333v6.2h-3.9334zm10.8667 8.6c0-3.9333-1.2667-6.1333-3.6667-6.1333s-3.6 2.1333-3.6 6.0666c0 3.9334 1.2 6.0667 3.6 6.0667s3.6667-2.1333 3.6667-6z"/><path d="m95.4667 27.4c0-5.6667 2.6666-9.0667 7.4663-9.0667 4.334 0 6.867 2.8667 6.867 7.7333 0 .6667-.067 1.2667-.133 2.2h-10.2003v.2c0 2.9334 1.1333 4.9334 3.5333 4.9334 1.8 0 2.667-.8667 3-2.8667l3.6.8667c-.667 3.2666-3 4.9333-6.6 4.9333-4.9333.1333-7.5333-3.2-7.5333-8.9333zm10.4003-1.5334c0-3.2666-.934-4.8-2.934-4.8-2.2 0-3.4663 1.8-3.4663 4.8z"/><path d="m112.8 18.8667h3.8v.4667c0 1.5333-.2 2.8666-.6 4.7333h.267c.666-3.8667 2.133-5.6667 5.4-5.6667 3 0 4.933 1.9334 4.933 5.8v11.8h-3.933v-10.8c0-2.4666-.867-3.7333-2.734-3.7333-2.2 0-3.266 1.6-3.266 5.4667v9.0666h-3.934v-17.1333z"/><path d="m149.933 36-3.533-14.6667c-.4-1.8-.867-4.2666-.867-6.5333h-.2c0 2.3333-.466 4.8-.866 6.5333l-3.534 14.6667h-2.933l-5.4-23.8h3.6l2.733 13.3333c.6 2.7334.867 5 .867 7.9334h.267c0-2.7334.266-5.0667.933-7.9334l3.267-13.3333h3.333l3.2 13.3333c.733 3.0667 1 5.4 1 7.9334h.267c0-2.6667.2-4.8667.866-7.9334l2.8-13.3333h2.6l-5.4 23.8z"/><path d="m159.867 27.4667c0-5.6 2.666-9 7.2-9 4.2 0 6.6 2.8 6.6 7.7333 0 .6-.067 1.1333-.134 2h-10.533v.2667c0 3.0666 1.333 5.4 4.133 5.4 2.067 0 3.067-.9334 3.534-3.0667l2.8.8c-.6 3.2-2.867 4.8667-6.334 4.8667-4.6 0-7.266-3.3334-7.266-9zm10.666-1.4667c0-3.5333-1.133-5.2-3.466-5.2-2.534 0-4.067 2-4.067 5.2z"/><path d="m179.8 31.7334h-.2c.4 1.4666.533 2.5333.533 3.6666v.6h-3.066v-24.3333h3.066v6.6667c0 1.8666-.2 3.2-.666 5.1333h.2c.8-3.2 2.4-5 5.333-5 3.8 0 6.2 3.4 6.2 8.9333 0 5.6667-2.533 9.0667-6.333 9.0667-2.867 0-4.267-1.7333-5.067-4.7333zm8.267-4.3334c0-4.2-1.467-6.4666-4.134-6.4666-2.6 0-4.066 2.2666-4.066 6.5333s1.466 6.6 4.066 6.6c2.667 0 4.134-2.4 4.134-6.6667z"/></g><g fill="#ff595a"><path d="m48 24.4c0-.2667 0-.6 0-.8667v.0667-.0667c-.1333-5.8-2.3333-11.6-6.6-16.06663 3.6 3.73333 5.6 8.40003 6.0667 13.26663-.6-1.8666-1.6667-3.6-3.0667-5.1333-.1333-3.2-1.1333-6.06667-3.1333-8.26667 1.9333 2.13334 2.9333 4.93337 2.9333 8.06667-1.8-1.8667-4.1333-3.4667-6.8667-4.6667-1.2-2.7333-2.8-5.06663-4.6666-6.86663 3.1333.06666 5.9333 1 8 2.93333.1333.13333.2.2.3333.33333-.1333-.13333-.2-.2-.3333-.33333 0 0 .0666 0 .0666.06667 0 0-.0666 0-.0666-.06667-4.5334-4.46667-10.4-6.666667-16.2667-6.8 0 0 0 0-.0667 0h.0667c-.2667 0-.6 0-.8667 0h.0667s0 0-.0667 0c-6 .133333-11.9333 2.46667-16.53329 7-9.4 9.4-9.4 24.6 0 33.9333 9.39999 9.4 24.59999 9.4 33.93329 0 4.6-4.5333 6.9334-10.5333 7.0667-16.5333zm-.5333-3.6c.2666 2.6.0666 5.2667-.6 7.8-1.6 3.4-5 6.2-9.3334 8.1333.8-1.9333 1.4667-4.0666 1.8667-6.3333 3.3333-4.8 5.0667-10 5-14.6 1.4667 1.5333 2.5333 3.2 3.0667 5zm-9.4 10.2667c-.7334.9333-1.5334 1.8-2.4 2.6666-2.0667 2.0667-4.4 3.8-6.6667 5.2-1.2.1334-2.4.2-3.6.2-5.0667 0-9.7333-1.1333-13.4667-2.9333-1.9333-3.8-3.06662-8.4667-3.06662-13.5333 0-1.2.06667-2.4.2-3.6 1.33332-2.3334 3.06662-4.6 5.20002-6.7334.8666-.8666 1.7333-1.6666 2.6666-2.39997 2.6-.66666 5.4-1.06666 8.4-1.06666 4.2667 0 8.2.8 11.6667 2.13333 1.3333 3.4 2.1333 7.4 2.1333 11.6667 0 2.9333-.4 5.8-1.0666 8.4zm-21.6667 11.2c-1.2667-1.1334-2.4-2.4667-3.4-4.0667 3.3333 1.1333 7.0667 1.8 11 1.8 1.0667 0 2.1333-.0667 3.2-.1333-3.7333 1.8-7.4667 2.6666-10.8 2.4zm-8.26665-21.4667c-.06667 1.0667-.13334 2.1333-.13334 3.2 0 3.9333.66667 7.6667 1.8 11-1.6-1-2.93333-2.1333-4.06666-3.4-.26667-3.3333.6-7.0667 2.4-10.8zm2.53335 16.5333c.7333 1.6 1.5333 3.0667 2.4666 4.3334-1.6-.5334-3.0666-1.4-4.26662-2.6-1.2-1.2-2.06667-2.6667-2.6-4.2667 1.4.9333 2.8 1.8 4.40002 2.5333zm2-24.6666c-1.2 1.2-2.2667 2.4-3.20002 3.6666.26667-1.3333.60002-2.5333 1.00002-3.7333 1.4-.8 2.9333-1.5333 4.6-2.0667-.8.6667-1.6 1.4-2.4 2.1334zm-4.06669 4.9333c-2.53333 3.6667-4.13333 7.5333-4.73333 11.2-.8-1.4667-1.2-3.1333-1.2-4.8 0-4.3333 2.73333-8.2 7.13333-11-.53333 1.4667-.93333 3-1.2 4.6zm15.39999 27.7333c-1.6667 0-3.3333-.4-4.8-1.2 3.6667-.6 7.5333-2.2 11.2-4.7333 1.6-.2667 3.1333-.6667 4.6-1.2-2.8 4.4-6.6667 7.1333-11 7.1333zm7.6667-6.8c1.2666-.9333 2.4666-2 3.6666-3.2.7334-.7333 1.4667-1.5333 2.1334-2.3333-.5334 1.6667-1.2667 3.2-2.0667 4.6-1.2.3333-2.4667.6667-3.7333.9333zm12.5333-22.9333c0 4.1333-1.6 8.8667-4.5333 13.2.2-1.6.3333-3.2.3333-4.8667 0-4.6666-.8667-9-2.4667-12.7333 2.6667 1.2 4.9334 2.6667 6.6667 4.4zm-7.4667-5.2c-3.7333-1.53333-8.0666-2.4-12.7333-2.4-1.6667 0-3.2667.13333-4.8667.33333 4.4-3 9.0667-4.53333 13.2667-4.53333 1.7333 1.73333 3.2 4 4.3333 6.6zm3.9334-3.66667c-2.1334-2-5-3-8.2-3.06666-1.5334-1.46667-3.2667-2.53334-5.1334-3.06667 4.8.4 9.5334 2.46667 13.3334 6.13333zm-13.5334-6.266663c1.8.600003 3.5334 1.666663 5.0667 3.133333-4.5333-.06667-9.7333 1.66667-14.5333 5-2.2667.4-4.4 1.06667-6.3334 1.8667 1.8-4.40003 4.6667-7.80003 8.0667-9.40003 2.5333-.600003 5.1333-.800003 7.7333-.600003zm-18.19995 6.533333c2.93335-2.93333 6.39995-4.86667 10.13335-5.86667-3.4667 1.73334-6.4 5.13334-8.4 9.53337-2.86669 1.2666-5.33335 3-7.20002 5 1.13333-3.1334 2.93333-6.13337 5.46667-8.6667zm32.06665 32.0667c-2.5333 2.5333-5.4667 4.3333-8.6667 5.4 2-1.8 3.6667-4.2667 5-7.1334 4.4667-2 7.8667-4.9333 9.5334-8.3333-1.0667 3.6667-3 7.1333-5.8667 10.0667z"/><path d="m198.533 24.0667c0-8.2 3.334-12.4 8.867-12.4 4.267 0 7.067 2.4 7.4 6.9333l-2.4.6667c-.267-3.7333-2.133-5.7333-5.067-5.7333-4 0-6.266 3.5333-6.266 10.6 0 6.9333 2.2 10.5333 6.266 10.5333 3 0 4.934-2.1333 5.2-5.9333l2.4.6666c-.4 4.6667-3.266 7.1334-7.6 7.1334-5.8-.0667-8.8-4.4-8.8-12.4667z"/><path d="m217.467 27.4667c0-5.8 2.466-9 7-9 4.533 0 6.866 3.2666 6.866 9 0 5.7333-2.466 9-7 9-4.4 0-6.866-3.2-6.866-9zm11.6 0c0-4.6667-1.667-7.3334-4.667-7.3334s-4.667 2.6-4.667 7.3334c0 4.6666 1.667 7.3333 4.667 7.3333s4.667-2.6 4.667-7.3333z"/><path d="m237.4 11.6667v24.3333h-2.133v-24.3333z"/><path d="m244.667 11.6667v24.3333h-2.134v-24.3333z"/><path d="m248.533 27.5333c0-5.7333 2.534-9.0666 6.8-9.0666 4 0 6.2 2.8 6.2 7.8 0 .4666-.066.8666-.066 1.4666h-10.8v.6c0 3.6 1.533 6.2667 4.733 6.2667 2.2 0 3.533-1.0667 3.933-3.6l2 .6667c-.6 3.3333-2.933 4.7333-6 4.7333-4.266.0667-6.8-3.2-6.8-8.8667zm10.867-1.3333c0-3.9333-1.333-6-4-6-2.867 0-4.6 2.2-4.6 6z"/><path d="m264.333 27.5334c0-5.6 2.734-9 7.067-9 3.733 0 5.733 2.0667 5.933 5.2667l-2.133.4666c-.2-2.4666-1.533-3.9333-3.8-3.9333-2.733 0-4.733 2.3333-4.733 7.1333 0 4.5334 1.666 7.2667 4.666 7.2667 2.2 0 3.534-1.3333 3.867-3.7333l2.133.6c-.533 3.1333-2.6 4.9333-5.933 4.9333-4.8-.0667-7.067-3.4667-7.067-9z"/><path d="m289.667 35.3333c-.734.5334-2.2 1.1334-3.667 1.1334-2.867 0-4.267-1.4667-4.267-4.9334v-10.9333h-3.6v-1.6h3.6v-4.6667l2.134-1.0666v5.7333h5.266v1.6h-5.266v10.4c0 2.7333.733 3.6 2.466 3.6.934 0 2.067-.4 3-1.0667z"/><path d="m292.6 11.6667h2.333v3.8667h-2.333zm.133 7.3333h2.134v17h-2.134z"/><path d="m303.333 36-5.733-17h2.333l3.134 9.8667c.733 2.2666 1.266 4.1333 1.4 5.4h.2c.133-1.2667.466-2.8 1.266-5.2l3.267-10.0667h2l-5.667 17z"/><path d="m312.733 27.5333c0-5.7333 2.534-9.0666 6.8-9.0666 4 0 6.2 2.8 6.2 7.8 0 .4666-.066.8666-.066 1.4666h-10.8v.6c0 3.6 1.533 6.2667 4.733 6.2667 2.2 0 3.533-1.0667 3.933-3.6l2 .6667c-.6 3.3333-2.933 4.7333-6 4.7333-4.266.0667-6.8-3.2-6.8-8.8667zm10.8-1.3333c0-3.9333-1.333-6-4-6-2.866 0-4.6 2.2-4.6 6z"/></g></g></svg>