<svg xmlns="http://www.w3.org/2000/svg" viewBox="0 0 146 74"><defs><style>.cls-1{fill:#ff595a;opacity:0.5;}.cls-2{fill:none;stroke:#ff595a;stroke-linecap:round;stroke-linejoin:round;stroke-width:2px;}</style></defs><g id="Layer_2" data-name="Layer 2"><g id="Layer_1-2" data-name="Layer 1"><polygon class="cls-1" points="1 73 37 55 55 55 91 37 109 37 145 19 145 73 1 73"/><rect class="cls-2" x="1" y="55" width="18" height="18"/><rect class="cls-2" x="37" y="55" width="18" height="18"/><rect class="cls-2" x="73" y="55" width="18" height="18"/><rect class="cls-2" x="109" y="55" width="18" height="18"/><rect class="cls-2" x="19" y="55" width="18" height="18"/><rect class="cls-2" x="55" y="55" width="18" height="18"/><rect class="cls-2" x="91" y="55" width="18" height="18"/><rect class="cls-2" x="127" y="55" width="18" height="18"/><rect class="cls-2" x="37" y="37" width="18" height="18"/><rect class="cls-2" x="73" y="37" width="18" height="18"/><rect class="cls-2" x="109" y="37" width="18" height="18"/><rect class="cls-2" x="55" y="37" width="18" height="18"/><rect class="cls-2" x="91" y="37" width="18" height="18"/><rect class="cls-2" x="127" y="37" width="18" height="18"/><rect class="cls-2" x="73" y="19" width="18" height="18"/><rect class="cls-2" x="109" y="19" width="18" height="18"/><rect class="cls-2" x="91" y="19" width="18" height="18"/><rect class="cls-2" x="127" y="19" width="18" height="18"/><rect class="cls-2" x="109" y="1" width="18" height="18"/><rect class="cls-2" x="127" y="1" width="18" height="18"/><polyline class="cls-2" points="10 1 1 10 10 19"/><polyline class="cls-2" points="37 1 46 10 37 19"/><line class="cls-2" x1="28" y1="1" x2="19" y2="19"/></g></g></svg>