<svg fill="none" height="64" viewBox="0 0 64 64" width="64" xmlns="http://www.w3.org/2000/svg"><path d="m9.26315 16.8421c4.18575 0 7.57895-3.3932 7.57895-7.57895 0-4.18574-3.3932-7.57895-7.57895-7.57895-4.18574 0-7.57895 3.39321-7.57895 7.57895 0 4.18575 3.39321 7.57895 7.57895 7.57895z" fill="#ff595a" fill-opacity=".5"/><g stroke="#ff595a" stroke-linecap="round" stroke-linejoin="round" stroke-miterlimit="10" stroke-width="2"><path d="m32 16.8421c4.1858 0 7.579-3.3932 7.579-7.57895 0-4.18574-3.3932-7.57895-7.579-7.57895-4.1857 0-7.5789 3.39321-7.5789 7.57895 0 4.18575 3.3932 7.57895 7.5789 7.57895z"/><path d="m32 62.3158c4.1858 0 7.579-3.3932 7.579-7.579 0-4.1857-3.3932-7.5789-7.579-7.5789-4.1857 0-7.5789 3.3932-7.5789 7.5789 0 4.1858 3.3932 7.579 7.5789 7.579z"/><path d="m54.7369 39.5789c4.1857 0 7.5789-3.3932 7.5789-7.5789 0-4.1858-3.3932-7.579-7.5789-7.579s-7.5789 3.3932-7.5789 7.579c0 4.1857 3.3932 7.5789 7.5789 7.5789z"/><path d="m32 39.5789c4.1858 0 7.579-3.3932 7.579-7.5789 0-4.1858-3.3932-7.579-7.579-7.579-4.1857 0-7.5789 3.3932-7.5789 7.579 0 4.1857 3.3932 7.5789 7.5789 7.5789z"/><path d="m9.26315 39.5789c4.18575 0 7.57895-3.3932 7.57895-7.5789 0-4.1858-3.3932-7.579-7.57895-7.579-4.18574 0-7.57895 3.3932-7.57895 7.579 0 4.1857 3.39321 7.5789 7.57895 7.5789z"/></g><path d="m54.7369 16.8421c4.1857 0 7.5789-3.3932 7.5789-7.57895 0-4.18574-3.3932-7.57895-7.5789-7.57895s-7.5789 3.39321-7.5789 7.57895c0 4.18575 3.3932 7.57895 7.5789 7.57895z" fill="#ff595a" fill-opacity=".5"/><path d="m9.26315 62.3158c4.18575 0 7.57895-3.3932 7.57895-7.579 0-4.1857-3.3932-7.5789-7.57895-7.5789-4.18574 0-7.57895 3.3932-7.57895 7.5789 0 4.1858 3.39321 7.579 7.57895 7.579z" fill="#ff595a" fill-opacity=".5"/><path d="m54.7369 62.3158c4.1857 0 7.5789-3.3932 7.5789-7.579 0-4.1857-3.3932-7.5789-7.5789-7.5789s-7.5789 3.3932-7.5789 7.5789c0 4.1858 3.3932 7.579 7.5789 7.579z" fill="#ff595a" fill-opacity=".5"/></svg>