<svg fill="none" height="64" viewBox="0 0 64 64" width="64" xmlns="http://www.w3.org/2000/svg"><g fill="#ff595a" fill-opacity=".5"><path d="m8.64865 16.4324c4.29885 0 7.78375-3.4849 7.78375-7.78375 0-4.29886-3.4849-7.783782-7.78375-7.783782-4.29886 0-7.783782 3.484922-7.783782 7.783782 0 4.29885 3.484922 7.78375 7.783782 7.78375z"/><path d="m32 16.4324c4.2988 0 7.7838-3.4849 7.7838-7.78375 0-4.29886-3.485-7.783782-7.7838-7.783782-4.2989 0-7.7838 3.484922-7.7838 7.783782 0 4.29885 3.4849 7.78375 7.7838 7.78375z"/><path d="m32 63.1351c4.2988 0 7.7838-3.4849 7.7838-7.7838s-3.485-7.7838-7.7838-7.7838c-4.2989 0-7.7838 3.4849-7.7838 7.7838s3.4849 7.7838 7.7838 7.7838z"/><path d="m55.3514 39.7838c4.2989 0 7.7838-3.485 7.7838-7.7838 0-4.2989-3.4849-7.7838-7.7838-7.7838s-7.7838 3.4849-7.7838 7.7838c0 4.2988 3.4849 7.7838 7.7838 7.7838z"/><path d="m8.64865 39.7838c4.29885 0 7.78375-3.485 7.78375-7.7838 0-4.2989-3.4849-7.7838-7.78375-7.7838-4.29886 0-7.783782 3.4849-7.783782 7.7838 0 4.2988 3.484922 7.7838 7.783782 7.7838z"/><path d="m55.3514 16.4324c4.2989 0 7.7838-3.4849 7.7838-7.78375 0-4.29886-3.4849-7.783782-7.7838-7.783782s-7.7838 3.484922-7.7838 7.783782c0 4.29885 3.4849 7.78375 7.7838 7.78375z"/><path d="m8.64865 63.1351c4.29885 0 7.78375-3.4849 7.78375-7.7838s-3.4849-7.7838-7.78375-7.7838c-4.29886 0-7.783782 3.4849-7.783782 7.7838s3.484922 7.7838 7.783782 7.7838z"/><path d="m55.3514 63.1351c4.2989 0 7.7838-3.4849 7.7838-7.7838s-3.4849-7.7838-7.7838-7.7838-7.7838 3.4849-7.7838 7.7838 3.4849 7.7838 7.7838 7.7838z"/></g><path d="m55.3514 8.64868-46.70272 46.70272" stroke="#ff595a" stroke-linecap="round" stroke-linejoin="round" stroke-miterlimit="10" stroke-width="2"/><path d="m8.64868 8.64868 46.70272 46.70272" stroke="#ff595a" stroke-linecap="round" stroke-linejoin="round" stroke-miterlimit="10" stroke-width="2"/><path d="m8.64868 32h46.70272" stroke="#ff595a" stroke-linecap="round" stroke-linejoin="round" stroke-miterlimit="10" stroke-width="2"/><path d="m32 8.64868v46.70272" stroke="#ff595a" stroke-linecap="round" stroke-linejoin="round" stroke-miterlimit="10" stroke-width="2"/></svg>