<svg xmlns="http://www.w3.org/2000/svg" viewBox="0 0 146 74"><defs><style>.cls-1{fill:#ff595a;opacity:0.5;}.cls-2{fill:none;stroke:#ff595a;stroke-linecap:round;stroke-linejoin:round;stroke-width:2px;}</style></defs><g id="Layer_2" data-name="Layer 2"><g id="Layer_1-2" data-name="Layer 1"><path class="cls-1" d="M10.44,24.74S21.84,6.11,34.11,11.15,55.81,28.9,65.45,24.52s19.73-15.13,33.1-7.67S110,34.6,100.74,38.76,91.1,42.27,82.33,50.38,67,69.45,52.3,58.49s-28.49,0-37.7-2.85S2.33,37.89,10.44,24.74Z"/><path class="cls-1" d="M127,55a18,18,0,0,0,12.73-30.73L114.27,49.73A17.94,17.94,0,0,0,127,55Z"/><polyline class="cls-2" points="127 55 127 73 95.5 64 64 73 32.5 64 1 73 1 10 32.5 1 64 10 95.5 1 127 10 127 19"/><polygon class="cls-2" points="122.5 37 127 23.5 131.5 37 127 50.5 122.5 37"/><circle class="cls-2" cx="127" cy="37" r="4.5"/><circle class="cls-2" cx="127" cy="37" r="18"/><line class="cls-2" x1="32.5" y1="1" x2="32.5" y2="64"/><line class="cls-2" x1="64" y1="10" x2="64" y2="73"/><line class="cls-2" x1="95.5" y1="1" x2="95.5" y2="64"/></g></g></svg>