<svg xmlns="http://www.w3.org/2000/svg" viewBox="0 0 74 74"><defs><style>.cls-1{fill:#ff595a;opacity:0.5;}.cls-2{fill:none;stroke:#ff595a;stroke-linecap:round;stroke-linejoin:round;stroke-width:2px;}</style></defs><g id="Layer_2" data-name="Layer 2"><g id="Layer_1-2" data-name="Layer 1"><rect class="cls-1" x="1" y="64" width="18" height="9"/><rect class="cls-1" x="28" y="46" width="18" height="27"/><rect class="cls-1" x="55" y="28" width="18" height="45"/><path class="cls-2" d="M73,10H59.5A4.49,4.49,0,0,0,55,14.5h0A4.49,4.49,0,0,0,59.5,19h9A4.49,4.49,0,0,1,73,23.5h0A4.49,4.49,0,0,1,68.5,28H55"/><line class="cls-2" x1="64" y1="1" x2="64" y2="37"/><path class="cls-2" d="M46,28H32.5A4.49,4.49,0,0,0,28,32.5h0A4.49,4.49,0,0,0,32.5,37h9A4.49,4.49,0,0,1,46,41.5h0A4.49,4.49,0,0,1,41.5,46H28"/><line class="cls-2" x1="37" y1="19" x2="37" y2="55"/><path class="cls-2" d="M19,46H5.5A4.49,4.49,0,0,0,1,50.5H1A4.49,4.49,0,0,0,5.5,55h9A4.49,4.49,0,0,1,19,59.5h0A4.49,4.49,0,0,1,14.5,64H1"/><line class="cls-2" x1="10" y1="37" x2="10" y2="73"/></g></g></svg>