<svg fill="none" height="64" viewBox="0 0 64 64" width="64" xmlns="http://www.w3.org/2000/svg" xmlns:xlink="http://www.w3.org/1999/xlink"><clipPath id="a"><path d="m0 0h64v64h-64z"/></clipPath><g clip-path="url(#a)" fill="#ff595a"><path d="m63.481.086486c-.346-.172973-.6919-.08648646-.9514.172973l-15.5675 15.567541c-.2595.2595-.346.6054-.173.9514.173.3459.4324.5189.7784.5189h15.5675c.519 0 .8649-.3459.8649-.8649v-15.567536c0-.345946-.173-.691891-.5189-.778378z" opacity=".2"/><path d="m63.1351 23.3513h-23.3514c-.2594 0-.4324.0865-.6054.2595l-15.5676 15.5676c-.2594.2594-.3459.6054-.1729.9513.1729.346.4324.519.7783.519h38.919c.5189 0 .8649-.346.8649-.8649v-15.5676c0-.5189-.346-.8649-.8649-.8649z" opacity=".2"/><path d="m63.1351 46.7027h-46.7027c-.2595 0-.4324.0865-.6054.2595l-15.567576 15.5675c-.25945975.2595-.3459462.6054-.1729733.9514.1729733.3459.4324323.5189.7783783.5189h62.270271c.5189 0 .8649-.3459.8649-.8649v-15.5675c0-.5189-.346-.8649-.8649-.8649z"/></g></svg>