<svg xmlns="http://www.w3.org/2000/svg" viewBox="0 0 74 74"><defs><style>.cls-1{fill:#ff595a;opacity:0.2;}.cls-2{fill:none;stroke:#ff595a;stroke-linecap:round;stroke-linejoin:round;stroke-width:2px;}</style></defs><g id="Layer_2" data-name="Layer 2"><g id="Layer_1-2" data-name="Layer 1"><path class="cls-1" d="M73.71.29A1,1,0,0,0,72.55.11l-72,36A1,1,0,0,0,0,37,37,37,0,0,0,37,74a1,1,0,0,0,.89-.55l36-72A1,1,0,0,0,73.71.29Z"/><path class="cls-1" d="M.29.29A1,1,0,0,1,1.45.11l72,36A1,1,0,0,1,74,37,37,37,0,0,1,37,74a1,1,0,0,1-.89-.55l-36-72A1,1,0,0,1,.29.29Z"/><path class="cls-1" d="M73.71,73.71a1,1,0,0,1-1.16.18l-72-36A1,1,0,0,1,0,37,37,37,0,0,1,37,0a1,1,0,0,1,.89.55l36,72A1,1,0,0,1,73.71,73.71Z"/><path class="cls-1" d="M.29,73.71a1,1,0,0,0,1.16.18l72-36A1,1,0,0,0,74,37,37,37,0,0,0,37,0a1,1,0,0,0-.89.55l-36,72A1,1,0,0,0,.29,73.71Z"/><circle class="cls-2" cx="37" cy="37" r="36"/></g></g></svg>