<svg fill="none" height="66" viewBox="0 0 66 66" width="66" xmlns="http://www.w3.org/2000/svg"><g fill="#ff595a"><path d="m64.6551 1.26293c-.2591-.25943-.691-.345902-1.0364-.17295l-62.18285 31.13142c-.25909.173-.43182.4324-.43182.7783 0 17.6412 14.33657 31.9963 31.95507 31.9963.3455 0 .6046-.173.7773-.5189l31.0914-62.26293c.1727-.25943.0864-.69181-.1727-.95124z" opacity=".2"/><path d="m1.26259 1.26293c.2591-.25943.69092-.345902.95002-.17295l62.18279 31.13142c.2591.173.5182.4324.5182.7783 0 17.6412-14.3366 31.9963-31.955 31.9963-.3455 0-.6046-.173-.7773-.5189l-31.09144-62.26293c-.172726-.25943-.08636-.69181.17273-.95124z" opacity=".2"/><path d="m64.6551 64.7364c-.2591.2595-.691.346-1.0364.173l-62.18285-31.1315c-.25909-.1729-.43182-.4323-.43182-.7783 0-17.6411 14.33657-31.99618 31.95507-31.99618.3455 0 .6046.17295.7773.51886l31.0914 62.26292c.1727.2594.0864.6918-.1727.9512z" opacity=".2"/><path d="m1.26259 64.7364c.2591.2595.69092.346 1.03639.173l62.18282-31.1315c.2591-.1729.5182-.4323.5182-.7783-.0864-17.6411-14.423-31.99618-32.0414-31.99618-.3455 0-.6046.17295-.7773.51886l-31.09144 62.26292c-.172726.2594-.08636.6918.17273.9512z" opacity=".2"/></g><path d="m32.9585 64.1311c17.1714 0 31.0915-13.9379 31.0915-31.1313s-13.9201-31.13133-31.0915-31.13133c-17.1713 0-31.09137 13.93793-31.09137 31.13133s13.92007 31.1313 31.09137 31.1313z" stroke="#ff595a" stroke-linecap="round" stroke-linejoin="round" stroke-miterlimit="10" stroke-width="2"/></svg>