<svg xmlns="http://www.w3.org/2000/svg" viewBox="0 0 74 74"><defs><style>.cls-1{fill:none;stroke:#ff595a;stroke-linecap:round;stroke-linejoin:round;stroke-width:2px;}.cls-2{fill:#ff595a;opacity:0.5;}</style></defs><g id="Layer_2" data-name="Layer 2"><g id="Layer_1-2" data-name="Layer 1"><circle class="cls-1" cx="37" cy="37" r="9"/><path class="cls-1" d="M73,44.2V29.8H63a26.69,26.69,0,0,0-2.53-6.11l7.06-7L57.36,6.45l-7,7.06A26.69,26.69,0,0,0,44.2,11V1H29.8V11a26.69,26.69,0,0,0-6.11,2.53l-7-7.06L6.45,16.64l7.06,7.05A26.69,26.69,0,0,0,11,29.8H1V44.2H11a26.69,26.69,0,0,0,2.53,6.11l-7.06,7L16.64,67.55l7.05-7.06A26.69,26.69,0,0,0,29.8,63V73H44.2V63a26.69,26.69,0,0,0,6.11-2.53l7,7.06L67.55,57.36l-7.06-7A26.69,26.69,0,0,0,63,44.2Z"/><path class="cls-1" d="M19,37A18,18,0,0,1,37,19"/><path class="cls-1" d="M55,37A18,18,0,0,1,37,55"/><path class="cls-2" d="M73,44.2V29.8H63a26.69,26.69,0,0,0-2.53-6.11l7.06-7-5.09-5.1-19.1,19.1A9,9,0,1,1,30.64,43.36l-19.1,19.1,5.1,5.09,7.05-7.06A26.69,26.69,0,0,0,29.8,63V73H44.2V63a26.69,26.69,0,0,0,6.11-2.53l7,7.06L67.55,57.36l-7.06-7A26.69,26.69,0,0,0,63,44.2Z"/></g></g></svg>