<svg fill="none" height="64" viewBox="0 0 64 64" width="64" xmlns="http://www.w3.org/2000/svg" xmlns:xlink="http://www.w3.org/1999/xlink"><clipPath id="a"><path d="m0 0h64v64h-64z"/></clipPath><g clip-path="url(#a)"><path d="m16.4324 54.4865h-15.567535c-.518919 0-.864865.346-.864865.8649v7.7838c0 .5189.345946.8648.864865.8648h15.567535c.519 0 .8649-.3459.8649-.8648v-7.7838c0-.5189-.3459-.8649-.8649-.8649z" fill="#ff595a" opacity=".5"/><path d="m39.7838 38.9189h-15.5676c-.5189 0-.8649.346-.8649.8649v23.3514c0 .5189.346.8648.8649.8648h15.5676c.5189 0 .8648-.3459.8648-.8648v-23.3514c0-.5189-.3459-.8649-.8648-.8649z" fill="#ff595a" opacity=".5"/><path d="m63.1352 23.3514h-15.5676c-.5189 0-.8648.3459-.8648.8648v38.919c0 .5189.3459.8648.8648.8648h15.5676c.5189 0 .8649-.3459.8649-.8648v-38.919c0-.5189-.346-.8648-.8649-.8648z" fill="#ff595a" opacity=".5"/><g stroke="#ff595a" stroke-linecap="round" stroke-linejoin="round" stroke-miterlimit="10" stroke-width="2"><path d="m16.4324 39.7838h-11.67564c-2.16216 0-3.891892 1.7297-3.891892 3.8919s1.729732 3.8919 3.891892 3.8919h7.78374c2.1622 0 3.8919 1.7297 3.8919 3.8919s-1.7297 3.8919-3.8919 3.8919h-11.675632"/><path d="m8.64868 32v31.1351"/><path d="m39.7838 24.2162h-11.6757c-2.1622 0-3.8919 1.7298-3.8919 3.8919 0 2.1622 1.7297 3.8919 3.8919 3.8919h7.7838c2.1621 0 3.8919 1.7298 3.8919 3.8919 0 2.1622-1.7298 3.8919-3.8919 3.8919h-11.6757"/><path d="m32 16.4324v31.1352"/><path d="m63.1352 8.64868h-11.6757c-2.1621 0-3.8919 1.72972-3.8919 3.89192 0 2.1621 1.7298 3.8919 3.8919 3.8919h7.7838c2.1622 0 3.8919 1.7297 3.8919 3.8919 0 2.1621-1.7297 3.8919-3.8919 3.8919h-11.6757"/><path d="m55.3514.864868v31.135132"/></g></g></svg>