<svg xmlns="http://www.w3.org/2000/svg" viewBox="0 0 72 74"><defs><style>.cls-1{fill:none;stroke:#ff595a;stroke-linecap:round;stroke-width:2px;}.cls-2{fill:#ff595a;opacity:0.5;}</style></defs><g id="Layer_2" data-name="Layer 2"><g id="Layer_1-2" data-name="Layer 1"><path class="cls-1" d="M28.76,46.15s2.83-.17,2.83,2.22-1.41,2.4-2.77,2.4"/><path class="cls-1" d="M23.23,40,20.17,5.27s-.73-3,3.35-4.11S28.33,4.5,29,8s4.4,25.44,4.4,25.44L38.6,4s1.23-2.36,4.73-1.95,3.51,3.34,3.1,5.13S43.9,27.74,43.9,27.74"/><path class="cls-1" d="M51.31,43.44a4.15,4.15,0,0,1-4.15,4.15h0A4.14,4.14,0,0,1,43,43.44V30.37a4.14,4.14,0,0,1,4.14-4.14h0a4.14,4.14,0,0,1,4.15,4.14Z"/><path class="cls-1" d="M58.32,45.21a3.53,3.53,0,0,1-3.53,3.52h0a3.53,3.53,0,0,1-3.52-3.52V34.09a3.53,3.53,0,0,1,3.52-3.53h0a3.53,3.53,0,0,1,3.53,3.53Z"/><path class="cls-1" d="M31.43,49.54s9.18-3.18,9.18,11"/><path class="cls-1" d="M51.7,73V67.24s6.64-2.07,6.64-22.51"/><path class="cls-1" d="M31.33,47.28S42,47.83,42,39.35H26.48S18,39.4,18,47.5,28.06,66.42,28.06,66.42V73"/><path class="cls-2" d="M23.26,40h0L20.17,5.27a2.65,2.65,0,0,1,0-.58,36,36,0,0,0,7.93,67.42V66.42S18,55.6,18,47.5A7.39,7.39,0,0,1,23.26,40ZM36,1a35.93,35.93,0,0,0-9,1.13C28.17,3.51,28.59,5.91,29,8c.65,3.51,4.4,25.44,4.4,25.44L38.6,4s1.23-2.36,4.73-1.95,3.51,3.34,3.1,5.13S43.9,27.74,43.9,27.74l0,.16a4.14,4.14,0,0,1,7.46,2.47l0,3.72a3.53,3.53,0,1,1,7,0V45.21l0-.48c0,20.44-6.64,22.51-6.64,22.51V69.4A36,36,0,0,0,36,1Z"/></g></g></svg>